<?xml version="1.0" standalone="no"?><!DOCTYPE svg PUBLIC "-//W3C//DTD SVG 1.1//EN" "http://www.w3.org/Graphics/SVG/1.1/DTD/svg11.dtd"><svg t="1755675009587" class="icon" viewBox="0 0 1024 1024" version="1.1" xmlns="http://www.w3.org/2000/svg" p-id="18524" xmlns:xlink="http://www.w3.org/1999/xlink" width="200" height="200"><path d="M0 0m146.285714 0l731.428572 0q146.285714 0 146.285714 146.285714l0 731.428572q0 146.285714-146.285714 146.285714l-731.428572 0q-146.285714 0-146.285714-146.285714l0-731.428572q0-146.285714 146.285714-146.285714Z" fill="#489EFF" p-id="18525"></path><path d="M838.802286 582.119619l-82.16381-143.62819 35.132953-67.462096a18.748952 18.748952 0 0 0 4.120381-23.430095l-45.129143-81.408a19.504762 19.504762 0 0 0-15.823238-8.801524h-167.862858l-37.546666-65.755428a17.603048 17.603048 0 0 0-13.458286-9.362286h-88.673524a18.773333 18.773333 0 0 0-15.969524 9.362286v3.559619l-83.870476 143.603809h-80.457143a18.797714 18.797714 0 0 0-16.432762 8.801524l-46.226285 81.944381a21.113905 21.113905 0 0 0 0 18.797714l83.358476 144.798477-37.571048 65.779809a21.113905 21.113905 0 0 0 0 18.724571l42.837334 75.068953a19.260952 19.260952 0 0 0 16.432762 9.337905h167.838476l40.472381 70.339047a19.504762 19.504762 0 0 0 14.628571 9.386667h95.085714a18.773333 18.773333 0 0 0 15.823239-9.362286l82.748952-144.822857h73.923048a20.553143 20.553143 0 0 0 15.872-9.947429l42.812952-75.580952a18.139429 18.139429 0 0 0 0-19.943619z m-103.862857 9.386667l-42.837334-79.067429-176.030476 310.101333-48.152381-79.213714h-175.957333l42.203428-76.8h89.770667l-176.079238-308.931047h92.135619l87.430095-156.038096 44.032 76.824381-45.202286 79.213715h352.109715l-44.568381 78.531047 88.624762 155.355429h-87.454476z" fill="#FFFFFF" p-id="18526"></path><path d="M504.271238 632.661333l112.323048-176.932571h-225.206857z" fill="#FFFFFF" p-id="18527"></path></svg>